<svg xmlns="http://www.w3.org/2000/svg" viewBox="0 0 512 512" role="img" aria-labelledby="title">
  <title id="title">ZeroOne</title>
  <defs>
    <linearGradient id="panel" x1="0" y1="0" x2="1" y2="1">
      <stop offset="0" stop-color="#302148"/>
      <stop offset="0.52" stop-color="#171021"/>
      <stop offset="1" stop-color="#09060f"/>
    </linearGradient>
    <linearGradient id="armor" x1="0" y1="0" x2="0" y2="1">
      <stop offset="0" stop-color="#b56fe8"/>
      <stop offset="0.48" stop-color="#8b4dcc"/>
      <stop offset="1" stop-color="#5a287f"/>
    </linearGradient>
    <linearGradient id="signal" x1="0" y1="0" x2="1" y2="1">
      <stop offset="0" stop-color="#b7ff70"/>
      <stop offset="1" stop-color="#69d832"/>
    </linearGradient>
    <filter id="shadow" x="-30%" y="-30%" width="160%" height="170%">
      <feDropShadow dx="0" dy="11" stdDeviation="10" flood-color="#000" flood-opacity=".72"/>
    </filter>
  </defs>

  <rect width="512" height="512" rx="104" fill="#050308"/>
  <rect x="20" y="20" width="472" height="472" rx="92" fill="url(#panel)" stroke="#7d3ec0" stroke-width="13"/>
  <rect x="39" y="39" width="434" height="434" rx="76" fill="none" stroke="#bb75eb" stroke-opacity=".28" stroke-width="3"/>

  <g fill="none" stroke="url(#signal)" stroke-width="15" stroke-linecap="square" stroke-linejoin="bevel">
    <path d="M64 154V99L101 62h57"/>
    <path d="M354 62h57l37 37v55"/>
    <path d="M64 358v55l37 37h57"/>
    <path d="M354 450h57l37-37v-55"/>
  </g>

  <g filter="url(#shadow)">
    <path fill="url(#armor)" fill-rule="evenodd" stroke="#c986f2" stroke-opacity=".45" stroke-width="3"
      d="M137 139h112l48 48v138l-48 48H137l-48-48V187zm31 75-19 19v46l19 19h50l19-19v-46l-19-19z"/>
    <path fill="url(#armor)" stroke="#c986f2" stroke-opacity=".45" stroke-width="3"
      d="M322 194l53-55h51v234h-68V213h-36z"/>
  </g>

  <path d="M91 214l45-49h20l-41 52v48H91z" fill="url(#signal)"/>
  <path d="M322 194l53-55h18l-43 57v40h-28z" fill="url(#signal)"/>
  <path d="M249 373h-34l33-39v-28h25v42z" fill="url(#signal)"/>

  <path d="M80 256h368v17H80z" fill="#09060f"/>
  <path d="M82 256h364" fill="none" stroke="#020104" stroke-opacity=".78" stroke-width="3"/>
</svg>
